<svg width="571" height="497" viewBox="0 0 571 497" fill="none" xmlns="http://www.w3.org/2000/svg">
<path d="M434.391 301.901C443.23 286.846 465.181 286.846 473.923 301.901L567.848 462.36C576.687 477.415 565.614 496.161 548.033 496.161H360.184C342.603 496.161 331.627 477.415 340.369 462.36L434.294 301.901H434.391Z" fill="white"/>
<path d="M377.659 195.055C386.206 180.097 386.206 161.642 377.659 146.587L300.635 12.2562C291.99 -2.79894 270.427 -2.79894 261.783 12.2562L3.99918 462.26C-4.6454 477.315 6.13604 496.158 23.4252 496.158H177.376C194.568 496.158 210.401 486.931 218.948 471.973L377.562 195.055H377.659Z" fill="white"/>
</svg>
